<mxfile host="app.diagrams.net" modified="2023-04-19T07:28:24.519Z" agent="Mozilla/5.0 (Windows NT 10.0; Win64; x64) AppleWebKit/537.36 (KHTML, like Gecko) Chrome/111.0.0.0 Safari/537.36" etag="5gE-PRHDWj_y4j1mdh7z" version="21.1.7" type="github">
  <diagram name="Страница 1" id="9_9qG0jCb3RKXHYtUwnJ">
    <mxGraphModel dx="1674" dy="764" grid="1" gridSize="10" guides="1" tooltips="1" connect="1" arrows="1" fold="1" page="1" pageScale="1" pageWidth="827" pageHeight="1169" math="0" shadow="0">
      <root>
        <mxCell id="0" />
        <mxCell id="1" parent="0" />
        <mxCell id="6GkrKODSUQzgFFRLCkmV-3" value="" style="edgeStyle=orthogonalEdgeStyle;rounded=0;orthogonalLoop=1;jettySize=auto;html=1;" edge="1" parent="1" source="6GkrKODSUQzgFFRLCkmV-1" target="6GkrKODSUQzgFFRLCkmV-2">
          <mxGeometry relative="1" as="geometry" />
        </mxCell>
        <mxCell id="6GkrKODSUQzgFFRLCkmV-1" value="/start" style="ellipse;whiteSpace=wrap;html=1;" vertex="1" parent="1">
          <mxGeometry x="344" y="30" width="120" height="50" as="geometry" />
        </mxCell>
        <mxCell id="6GkrKODSUQzgFFRLCkmV-5" value="" style="edgeStyle=orthogonalEdgeStyle;rounded=0;orthogonalLoop=1;jettySize=auto;html=1;" edge="1" parent="1" source="6GkrKODSUQzgFFRLCkmV-2" target="6GkrKODSUQzgFFRLCkmV-4">
          <mxGeometry relative="1" as="geometry" />
        </mxCell>
        <mxCell id="6GkrKODSUQzgFFRLCkmV-8" value="" style="edgeStyle=orthogonalEdgeStyle;rounded=0;orthogonalLoop=1;jettySize=auto;html=1;" edge="1" parent="1" source="6GkrKODSUQzgFFRLCkmV-2" target="6GkrKODSUQzgFFRLCkmV-7">
          <mxGeometry relative="1" as="geometry" />
        </mxCell>
        <mxCell id="6GkrKODSUQzgFFRLCkmV-2" value="Пользователь существует?" style="strokeWidth=2;html=1;shape=mxgraph.flowchart.decision;whiteSpace=wrap;" vertex="1" parent="1">
          <mxGeometry x="304" y="120" width="200" height="100" as="geometry" />
        </mxCell>
        <mxCell id="6GkrKODSUQzgFFRLCkmV-4" value="Регистрация" style="whiteSpace=wrap;html=1;strokeWidth=2;" vertex="1" parent="1">
          <mxGeometry x="64" y="140" width="120" height="60" as="geometry" />
        </mxCell>
        <mxCell id="6GkrKODSUQzgFFRLCkmV-6" value="нет" style="text;html=1;align=center;verticalAlign=middle;resizable=0;points=[];autosize=1;strokeColor=none;fillColor=none;" vertex="1" parent="1">
          <mxGeometry x="230" y="145" width="40" height="30" as="geometry" />
        </mxCell>
        <mxCell id="6GkrKODSUQzgFFRLCkmV-7" value="вход" style="whiteSpace=wrap;html=1;strokeWidth=2;" vertex="1" parent="1">
          <mxGeometry x="624" y="140" width="120" height="60" as="geometry" />
        </mxCell>
        <mxCell id="6GkrKODSUQzgFFRLCkmV-10" value="да" style="text;html=1;align=center;verticalAlign=middle;resizable=0;points=[];autosize=1;strokeColor=none;fillColor=none;" vertex="1" parent="1">
          <mxGeometry x="540" y="145" width="40" height="30" as="geometry" />
        </mxCell>
      </root>
    </mxGraphModel>
  </diagram>
</mxfile>
